<mxfile host="app.diagrams.net" modified="2024-07-21T07:37:10.774Z" agent="Mozilla/5.0 (Windows NT 10.0; Win64; x64) AppleWebKit/537.36 (KHTML, like Gecko) Chrome/126.0.0.0 Safari/537.36" version="24.7.2" etag="YHN2tzLKtYcYg52OvKN6" type="github">
  <diagram name="Page-1" id="c7lwP86ecKqfPao36uUz">
    <mxGraphModel>
      <root>
        <mxCell id="0" />
        <mxCell id="1" parent="0" />
      </root>
    </mxGraphModel>
  </diagram>
</mxfile>
